<svg width="32" height="32" viewBox="0 0 32 32" fill="none" xmlns="http://www.w3.org/2000/svg">
<path d="M1.5 10.5H30.5V24.5C30.5 27.8137 27.8137 30.5 24.5 30.5H7.5C4.18629 30.5 1.5 27.8137 1.5 24.5V10.5Z" fill="white"/>
<rect x="4.75" y="20.5" width="6.5" height="6.5" rx="1.5" fill="#E1DDDD"/>
<rect x="12.75" y="20.5" width="6.5" height="6.5" rx="1.5" fill="#E1DDDD"/>
<path d="M1.5 10.5C1.5 7.70435 1.5 6.30653 1.95672 5.2039C2.56569 3.73373 3.73373 2.56569 5.2039 1.95672C6.30653 1.5 7.70435 1.5 10.5 1.5H21.5C24.2956 1.5 25.6935 1.5 26.7961 1.95672C28.2663 2.56569 29.4343 3.73373 30.0433 5.2039C30.5 6.30653 30.5 7.70435 30.5 10.5V10.5H1.5V10.5Z" fill="#D85959"/>
<rect x="4.75" y="12.5" width="6.5" height="6.5" rx="1.5" fill="#E1DDDD"/>
<rect x="6.75" width="4" height="6" rx="2" fill="white"/>
<rect x="21.25" width="4" height="6" rx="2" fill="white"/>
<rect x="12.75" y="12.5" width="6.5" height="6.5" rx="1.5" fill="#B7B7B7"/>
<rect x="20.75" y="12.5" width="6.5" height="6.5" rx="1.5" fill="#737373"/>
<rect x="20.75" y="20.5" width="6.5" height="6.5" rx="1.5" fill="#B7B7B7"/>
</svg>
